<?xml version="1.0" encoding="iso-8859-1"?>
<!-- Generator: Adobe Illustrator 19.0.0, SVG Export Plug-In . SVG Version: 6.00 Build 0)  -->
<svg version="1.1" id="Layer_1" xmlns="http://www.w3.org/2000/svg" xmlns:xlink="http://www.w3.org/1999/xlink" x="0px" y="0px"
	 viewBox="0 0 512 512" style="enable-background:new 0 0 512 512;" xml:space="preserve">
<g>
	<path style="fill:#F85B57;" d="M397.075,432.767l21.257-228.237c0.512-5.544-3.955-10.319-9.666-10.319H103.548
		c-5.703,0-10.178,4.776-9.666,10.319l21.257,228.237c0.459,4.882,4.643,8.616,9.666,8.616h262.612
		C392.431,441.383,396.624,437.649,397.075,432.767"/>
	<g>
		<polygon style="fill:#E6E6E6;" points="407.782,194.207 414.358,123.586 97.854,123.586 104.43,194.207 		"/>
		<path style="fill:#E6E6E6;" d="M127.452,441.379l5.826,62.596c0.424,4.546,4.334,8.024,9.013,8.024h227.637
			c4.679,0,8.58-3.478,9.004-8.024l5.835-62.596H127.452z"/>
	</g>
	<path style="fill:#D2D5D7;" d="M441.379,114.759c0,4.873-3.955,8.828-8.828,8.828H79.448c-4.873,0-8.828-3.955-8.828-8.828v-35.31
		c0-4.873,3.955-8.828,8.828-8.828h353.103c4.873,0,8.828,3.955,8.828,8.828V114.759z"/>
	<path style="fill:#E6E6E6;" d="M346.537,0h-180.86c-2.842,0-5.526,1.306-7.23,3.531l-51.544,67.09H405.32l-51.544-67.09
		C352.063,1.306,349.379,0,346.537,0"/>
	<path style="fill:#F9DA49;" d="M344.276,317.793c0-48.755-38.223-88.276-88.17-88.276c-49.938,0-88.382,39.521-88.382,88.276
		s38.444,88.276,88.382,88.276C306.052,406.069,344.276,366.548,344.276,317.793"/>
	<path style="fill:#D3B742;" d="M256.108,379.586c-34.71,0-61.899-27.145-61.899-61.793c0-4.873,3.955-8.828,8.828-8.828
		s8.828,3.955,8.828,8.828c0,24.753,19.43,44.138,44.244,44.138c4.873,0,8.828,3.955,8.828,8.828
		C264.935,375.631,260.981,379.586,256.108,379.586"/>
</g>
<g>
</g>
<g>
</g>
<g>
</g>
<g>
</g>
<g>
</g>
<g>
</g>
<g>
</g>
<g>
</g>
<g>
</g>
<g>
</g>
<g>
</g>
<g>
</g>
<g>
</g>
<g>
</g>
<g>
</g>
</svg>
