<svg height="507pt" viewBox="0 0 507.46067 507" width="507pt" xmlns="http://www.w3.org/2000/svg"><path d="m106.398438 225.039062-88.480469-56.320312 77.246093-77.214844c26.429688-26.695312 67.9375-31.246094 99.519532-10.910156l51.410156 32.703125-20.144531 13.664063c-39.171875 26.859374-76.121094 56.824218-110.496094 89.597656zm0 0" fill="#ff7761"/><path d="m338.910156 489.726562-56.304687-88.480468 8.574219-9.070313c32.78125-34.371093 62.742187-71.324219 89.601562-110.496093l13.664062-20.144532 32.71875 51.410156c20.3125 31.589844 15.757813 73.085938-10.925781 99.519532zm0 0" fill="#ff7761"/><path d="m282.03125 447.152344-221.554688-221.550782 11.3125-11.3125c231.550782-231.585937 413.214844-214.320312 420.863282-213.457031l12.800781 1.425781 1.410156 12.796876c.863281 7.632812 18.078125 189.328124-213.441406 420.800781zm0 0" fill="#ffda6b"/><path d="m139.328125 345.675781 89.367187-89.367187c6.25-6.25 16.378907-6.25 22.628907 0 6.246093 6.25 6.246093 16.378906 0 22.628906l-89.367188 89.367188c-6.25 6.246093-16.378906 6.246093-22.628906 0-6.246094-6.25-6.246094-16.382813 0-22.628907zm0 0" fill="#ff7761"/><path d="m395.324219 176.304688c0 35.34375-28.652344 64-64 64-35.34375 0-64-28.65625-64-64 0-35.347657 28.65625-64 64-64 35.347656 0 64 28.652343 64 64zm0 0" fill="#f5cd00"/><path d="m363.324219 176.304688c0 17.671874-14.324219 32-32 32-17.671875 0-32-14.328126-32-32 0-17.671876 14.328125-32 32-32 17.675781 0 32 14.328124 32 32zm0 0" fill="#448aff"/><g fill="#ff7761"><path d="m11.328125 377.675781 41.371094-41.375c6.25-6.25 16.378906-6.25 22.628906 0 6.25 6.246094 6.25 16.378907 0 22.625l-41.375 41.375c-6.246094 6.25-16.378906 6.25-22.625 0-6.25-6.246093-6.25-16.378906 0-22.625zm0 0"/><path d="m107.332031 473.675781 41.375-41.375c6.246094-6.25 16.378907-6.25 22.625 0 6.25 6.246094 6.25 16.378907 0 22.625l-41.375 41.375c-6.246093 6.25-16.378906 6.25-22.625 0-6.25-6.246093-6.25-16.378906 0-22.625zm0 0"/><path d="m0 485 22.457031-22.457031 22.628907 22.625-22.457032 22.460937zm0 0"/><path d="m56.421875 428.585938 28.28125-28.28125c6.25-6.25 16.378906-6.25 22.628906 0 6.25 6.246093 6.25 16.378906 0 22.625l-28.285156 28.285156c-6.246094 6.25-16.378906 6.25-22.625 0-6.25-6.25-6.25-16.378906 0-22.628906zm0 0"/></g></svg>